<mxfile host="app.diagrams.net" modified="2023-03-28T17:45:16.100Z" agent="Mozilla/5.0 (Windows NT 10.0; Win64; x64) AppleWebKit/537.36 (KHTML, like Gecko) Chrome/111.0.0.0 Safari/537.36" etag="wRP-4cn-AwjqTR8XhbDO" version="21.1.1" type="github">
  <diagram name="PÃ¡gina-1" id="nyqqSqXGaRO7hyqiKzip">
    <mxGraphModel dx="1434" dy="796" grid="1" gridSize="10" guides="1" tooltips="1" connect="1" arrows="1" fold="1" page="1" pageScale="1" pageWidth="827" pageHeight="1169" background="none" math="0" shadow="0">
      <root>
        <mxCell id="0" />
        <mxCell id="1" parent="0" />
        <mxCell id="s3wLV9zYP3ZQD25hzQMA-5" value="" style="edgeStyle=orthogonalEdgeStyle;rounded=0;orthogonalLoop=1;jettySize=auto;html=1;" edge="1" parent="1" source="s3wLV9zYP3ZQD25hzQMA-2" target="s3wLV9zYP3ZQD25hzQMA-4">
          <mxGeometry relative="1" as="geometry" />
        </mxCell>
        <mxCell id="s3wLV9zYP3ZQD25hzQMA-2" value="&lt;font style=&quot;font-size: 16px;&quot; face=&quot;Verdana&quot;&gt;Start&lt;/font&gt;" style="ellipse;whiteSpace=wrap;html=1;fillColor=#f5f5f5;fontColor=#333333;strokeColor=#666666;align=center;" vertex="1" parent="1">
          <mxGeometry x="360" y="10" width="114" height="80" as="geometry" />
        </mxCell>
        <mxCell id="s3wLV9zYP3ZQD25hzQMA-11" value="" style="edgeStyle=orthogonalEdgeStyle;rounded=0;orthogonalLoop=1;jettySize=auto;html=1;" edge="1" parent="1" source="s3wLV9zYP3ZQD25hzQMA-4" target="s3wLV9zYP3ZQD25hzQMA-10">
          <mxGeometry relative="1" as="geometry">
            <Array as="points">
              <mxPoint x="560" y="225" />
              <mxPoint x="560" y="243" />
            </Array>
          </mxGeometry>
        </mxCell>
        <mxCell id="s3wLV9zYP3ZQD25hzQMA-13" value="" style="edgeStyle=orthogonalEdgeStyle;rounded=0;orthogonalLoop=1;jettySize=auto;html=1;" edge="1" parent="1" source="s3wLV9zYP3ZQD25hzQMA-4" target="s3wLV9zYP3ZQD25hzQMA-12">
          <mxGeometry relative="1" as="geometry" />
        </mxCell>
        <mxCell id="s3wLV9zYP3ZQD25hzQMA-4" value="&lt;font face=&quot;Verdana&quot;&gt;Int x = 0;&lt;br&gt;int y = 0;&lt;br&gt;int res = 1;&lt;br&gt;va _list args;&lt;/font&gt;" style="shape=parallelogram;perimeter=parallelogramPerimeter;whiteSpace=wrap;html=1;fixedSize=1;fillColor=#dae8fc;strokeColor=#6c8ebf;" vertex="1" parent="1">
          <mxGeometry x="336" y="180" width="156" height="90" as="geometry" />
        </mxCell>
        <mxCell id="s3wLV9zYP3ZQD25hzQMA-10" value="&lt;font face=&quot;Verdana&quot;&gt;typedef struct syms&lt;br&gt;&lt;div style=&quot;text-align: left;&quot;&gt;&lt;span style=&quot;background-color: initial;&quot;&gt;{&lt;/span&gt;&lt;/div&gt;&lt;div style=&quot;text-align: left;&quot;&gt;&lt;span style=&quot;background-color: initial;&quot;&gt;char name;&lt;/span&gt;&lt;/div&gt;&lt;div style=&quot;text-align: left;&quot;&gt;&lt;span style=&quot;background-color: initial;&quot;&gt;int (*f)(va_list);&lt;/span&gt;&lt;/div&gt;&lt;div style=&quot;text-align: left;&quot;&gt;&lt;span style=&quot;background-color: initial;&quot;&gt;} sym;&lt;/span&gt;&lt;/div&gt;&lt;/font&gt;" style="shape=document;whiteSpace=wrap;html=1;boundedLbl=1;fillColor=#d5e8d4;strokeColor=#82b366;" vertex="1" parent="1">
          <mxGeometry x="640" y="180" width="150" height="115" as="geometry" />
        </mxCell>
        <mxCell id="s3wLV9zYP3ZQD25hzQMA-19" value="" style="edgeStyle=orthogonalEdgeStyle;rounded=0;orthogonalLoop=1;jettySize=auto;html=1;" edge="1" parent="1" source="s3wLV9zYP3ZQD25hzQMA-12" target="s3wLV9zYP3ZQD25hzQMA-18">
          <mxGeometry relative="1" as="geometry" />
        </mxCell>
        <mxCell id="s3wLV9zYP3ZQD25hzQMA-12" value="&lt;font face=&quot;Verdana&quot;&gt;syms[] {&lt;br&gt;{&#39;c&#39;, sym_c},&lt;br&gt;{&#39;s&#39;, sym_s},&lt;br&gt;{&#39;d&#39;, NULL},&lt;br&gt;{&#39;i&#39;, NULL},&lt;br&gt;{&#39;\0&#39;, NULL}&lt;br&gt;&lt;/font&gt;&lt;div style=&quot;text-align: left;&quot;&gt;&lt;span style=&quot;background-color: initial;&quot;&gt;&lt;font face=&quot;Verdana&quot;&gt;}&lt;/font&gt;&lt;/span&gt;&lt;/div&gt;" style="whiteSpace=wrap;html=1;fillColor=#dae8fc;strokeColor=#6c8ebf;" vertex="1" parent="1">
          <mxGeometry x="50.19" y="157.5" width="169" height="135" as="geometry" />
        </mxCell>
        <mxCell id="s3wLV9zYP3ZQD25hzQMA-21" value="" style="edgeStyle=orthogonalEdgeStyle;rounded=0;orthogonalLoop=1;jettySize=auto;html=1;" edge="1" parent="1" source="s3wLV9zYP3ZQD25hzQMA-23" target="s3wLV9zYP3ZQD25hzQMA-20">
          <mxGeometry relative="1" as="geometry" />
        </mxCell>
        <mxCell id="s3wLV9zYP3ZQD25hzQMA-65" value="" style="edgeStyle=orthogonalEdgeStyle;rounded=0;orthogonalLoop=1;jettySize=auto;html=1;" edge="1" parent="1" source="s3wLV9zYP3ZQD25hzQMA-18" target="s3wLV9zYP3ZQD25hzQMA-64">
          <mxGeometry relative="1" as="geometry" />
        </mxCell>
        <mxCell id="s3wLV9zYP3ZQD25hzQMA-18" value="&lt;font face=&quot;Verdana&quot;&gt;Is format[x] != &#39;\0&#39;?&lt;/font&gt;" style="rhombus;whiteSpace=wrap;html=1;fillColor=#ffe6cc;strokeColor=#d79b00;" vertex="1" parent="1">
          <mxGeometry x="20" y="520" width="180" height="160" as="geometry" />
        </mxCell>
        <mxCell id="s3wLV9zYP3ZQD25hzQMA-27" value="" style="edgeStyle=orthogonalEdgeStyle;rounded=0;orthogonalLoop=1;jettySize=auto;html=1;" edge="1" parent="1" source="s3wLV9zYP3ZQD25hzQMA-28" target="s3wLV9zYP3ZQD25hzQMA-26">
          <mxGeometry relative="1" as="geometry" />
        </mxCell>
        <mxCell id="s3wLV9zYP3ZQD25hzQMA-67" value="" style="edgeStyle=orthogonalEdgeStyle;rounded=0;orthogonalLoop=1;jettySize=auto;html=1;" edge="1" parent="1" source="s3wLV9zYP3ZQD25hzQMA-20" target="s3wLV9zYP3ZQD25hzQMA-66">
          <mxGeometry relative="1" as="geometry">
            <Array as="points">
              <mxPoint x="566" y="810" />
              <mxPoint x="566" y="740" />
            </Array>
          </mxGeometry>
        </mxCell>
        <mxCell id="s3wLV9zYP3ZQD25hzQMA-68" value="&lt;font style=&quot;font-size: 15px;&quot;&gt;False&lt;/font&gt;" style="edgeLabel;html=1;align=center;verticalAlign=middle;resizable=0;points=[];" vertex="1" connectable="0" parent="s3wLV9zYP3ZQD25hzQMA-67">
          <mxGeometry x="-0.5541" y="2" relative="1" as="geometry">
            <mxPoint y="1" as="offset" />
          </mxGeometry>
        </mxCell>
        <mxCell id="s3wLV9zYP3ZQD25hzQMA-20" value="&lt;font face=&quot;Verdana&quot;&gt;If format[x] == &#39;%&#39;&lt;/font&gt;" style="rhombus;whiteSpace=wrap;html=1;fillColor=#e1d5e7;strokeColor=#9673a6;" vertex="1" parent="1">
          <mxGeometry x="337.81" y="740" width="139.38" height="145" as="geometry" />
        </mxCell>
        <mxCell id="s3wLV9zYP3ZQD25hzQMA-24" value="" style="edgeStyle=orthogonalEdgeStyle;rounded=0;orthogonalLoop=1;jettySize=auto;html=1;" edge="1" parent="1" source="s3wLV9zYP3ZQD25hzQMA-18" target="s3wLV9zYP3ZQD25hzQMA-23">
          <mxGeometry relative="1" as="geometry">
            <mxPoint x="199" y="574" as="sourcePoint" />
            <mxPoint x="408" y="740" as="targetPoint" />
          </mxGeometry>
        </mxCell>
        <mxCell id="s3wLV9zYP3ZQD25hzQMA-23" value="True" style="text;html=1;align=center;verticalAlign=middle;resizable=0;points=[];autosize=1;strokeColor=none;fillColor=none;" vertex="1" parent="1">
          <mxGeometry x="245" y="555" width="50" height="30" as="geometry" />
        </mxCell>
        <mxCell id="s3wLV9zYP3ZQD25hzQMA-46" value="" style="edgeStyle=orthogonalEdgeStyle;rounded=0;orthogonalLoop=1;jettySize=auto;html=1;" edge="1" parent="1" source="s3wLV9zYP3ZQD25hzQMA-26" target="s3wLV9zYP3ZQD25hzQMA-45">
          <mxGeometry relative="1" as="geometry" />
        </mxCell>
        <mxCell id="s3wLV9zYP3ZQD25hzQMA-51" style="edgeStyle=orthogonalEdgeStyle;rounded=0;orthogonalLoop=1;jettySize=auto;html=1;exitX=1;exitY=1;exitDx=0;exitDy=0;" edge="1" parent="1" source="s3wLV9zYP3ZQD25hzQMA-26" target="s3wLV9zYP3ZQD25hzQMA-52">
          <mxGeometry relative="1" as="geometry">
            <mxPoint x="650" y="1330" as="targetPoint" />
          </mxGeometry>
        </mxCell>
        <mxCell id="s3wLV9zYP3ZQD25hzQMA-63" value="" style="edgeStyle=orthogonalEdgeStyle;rounded=0;orthogonalLoop=1;jettySize=auto;html=1;" edge="1" parent="1" source="s3wLV9zYP3ZQD25hzQMA-26" target="s3wLV9zYP3ZQD25hzQMA-62">
          <mxGeometry relative="1" as="geometry" />
        </mxCell>
        <mxCell id="s3wLV9zYP3ZQD25hzQMA-26" value="&lt;font face=&quot;Verdana&quot;&gt;Is syms[y].sim != &#39;\0&#39;?&lt;/font&gt;" style="rhombus;whiteSpace=wrap;html=1;fillColor=#d5e8d4;strokeColor=#82b366;rounded=0;shadow=0;" vertex="1" parent="1">
          <mxGeometry x="310" y="1060" width="167.19" height="145" as="geometry" />
        </mxCell>
        <mxCell id="s3wLV9zYP3ZQD25hzQMA-29" value="" style="edgeStyle=orthogonalEdgeStyle;rounded=0;orthogonalLoop=1;jettySize=auto;html=1;" edge="1" parent="1" source="s3wLV9zYP3ZQD25hzQMA-20" target="s3wLV9zYP3ZQD25hzQMA-28">
          <mxGeometry relative="1" as="geometry">
            <mxPoint x="408" y="885" as="sourcePoint" />
            <mxPoint x="408" y="1000" as="targetPoint" />
          </mxGeometry>
        </mxCell>
        <mxCell id="s3wLV9zYP3ZQD25hzQMA-28" value="&lt;font style=&quot;font-size: 14px;&quot; face=&quot;Verdana&quot;&gt;True&lt;/font&gt;" style="text;html=1;align=center;verticalAlign=middle;resizable=0;points=[];autosize=1;strokeColor=none;fillColor=none;rotation=0;" vertex="1" parent="1">
          <mxGeometry x="382.5" y="940" width="50" height="30" as="geometry" />
        </mxCell>
        <mxCell id="s3wLV9zYP3ZQD25hzQMA-32" value="&lt;font face=&quot;Verdana&quot;&gt;While loop condition&lt;/font&gt;" style="whiteSpace=wrap;html=1;rounded=1;arcSize=50;align=center;verticalAlign=middle;strokeWidth=1;autosize=1;spacing=4;treeFolding=1;treeMoving=1;newEdgeStyle={&quot;edgeStyle&quot;:&quot;entityRelationEdgeStyle&quot;,&quot;startArrow&quot;:&quot;none&quot;,&quot;endArrow&quot;:&quot;none&quot;,&quot;segment&quot;:10,&quot;curved&quot;:1,&quot;sourcePerimeterSpacing&quot;:0,&quot;targetPerimeterSpacing&quot;:0};" vertex="1" parent="1">
          <mxGeometry x="610" y="1050" width="170" height="30" as="geometry" />
        </mxCell>
        <mxCell id="s3wLV9zYP3ZQD25hzQMA-33" value="" style="edgeStyle=entityRelationEdgeStyle;startArrow=none;endArrow=none;segment=10;curved=1;sourcePerimeterSpacing=0;targetPerimeterSpacing=0;rounded=0;" edge="1" target="s3wLV9zYP3ZQD25hzQMA-32" parent="1">
          <mxGeometry relative="1" as="geometry">
            <mxPoint x="477.19" y="1132" as="sourcePoint" />
          </mxGeometry>
        </mxCell>
        <mxCell id="s3wLV9zYP3ZQD25hzQMA-50" value="" style="edgeStyle=orthogonalEdgeStyle;rounded=0;orthogonalLoop=1;jettySize=auto;html=1;" edge="1" parent="1" source="s3wLV9zYP3ZQD25hzQMA-45" target="s3wLV9zYP3ZQD25hzQMA-49">
          <mxGeometry relative="1" as="geometry" />
        </mxCell>
        <mxCell id="s3wLV9zYP3ZQD25hzQMA-45" value="&lt;font face=&quot;Verdana&quot;&gt;If format[x + 1] ==&lt;br&gt;syms[y].sim&lt;br&gt;&lt;/font&gt;" style="rhombus;whiteSpace=wrap;html=1;fillColor=#e1d5e7;strokeColor=#9673a6;" vertex="1" parent="1">
          <mxGeometry x="165.10000000000002" y="1310" width="194.9" height="160" as="geometry" />
        </mxCell>
        <mxCell id="s3wLV9zYP3ZQD25hzQMA-49" value="Res += syms[y].f" style="whiteSpace=wrap;html=1;fillColor=#d5e8d4;strokeColor=#82b366;" vertex="1" parent="1">
          <mxGeometry x="333.59" y="1575" width="120" height="60" as="geometry" />
        </mxCell>
        <mxCell id="s3wLV9zYP3ZQD25hzQMA-60" value="" style="edgeStyle=orthogonalEdgeStyle;rounded=0;orthogonalLoop=1;jettySize=auto;html=1;exitX=0;exitY=0.5;exitDx=0;exitDy=0;" edge="1" parent="1" source="s3wLV9zYP3ZQD25hzQMA-52" target="s3wLV9zYP3ZQD25hzQMA-59">
          <mxGeometry relative="1" as="geometry">
            <Array as="points">
              <mxPoint x="550" y="1315" />
            </Array>
          </mxGeometry>
        </mxCell>
        <mxCell id="s3wLV9zYP3ZQD25hzQMA-52" value="If format[x + 1] == &#39;%&#39;" style="rhombus;whiteSpace=wrap;html=1;fillColor=#e1d5e7;strokeColor=#9673a6;" vertex="1" parent="1">
          <mxGeometry x="590" y="1230" width="170" height="170" as="geometry" />
        </mxCell>
        <mxCell id="s3wLV9zYP3ZQD25hzQMA-59" value="&lt;font face=&quot;Verdana&quot;&gt;_putchar(format[x];&lt;br&gt;x++;&lt;/font&gt;" style="whiteSpace=wrap;html=1;fillColor=#d5e8d4;strokeColor=#82b366;" vertex="1" parent="1">
          <mxGeometry x="660" y="1530" width="148" height="80" as="geometry" />
        </mxCell>
        <mxCell id="s3wLV9zYP3ZQD25hzQMA-61" value="&lt;font face=&quot;Verdana&quot;&gt;TRUE&lt;/font&gt;" style="text;html=1;align=center;verticalAlign=middle;resizable=0;points=[];autosize=1;strokeColor=none;fillColor=none;" vertex="1" parent="1">
          <mxGeometry x="540" y="1290" width="60" height="30" as="geometry" />
        </mxCell>
        <mxCell id="s3wLV9zYP3ZQD25hzQMA-62" value="y++;" style="whiteSpace=wrap;html=1;fillColor=#ffe6cc;strokeColor=#d79b00;" vertex="1" parent="1">
          <mxGeometry x="474.005" y="1710" width="120" height="60" as="geometry" />
        </mxCell>
        <mxCell id="s3wLV9zYP3ZQD25hzQMA-64" value="&lt;font face=&quot;Verdana&quot;&gt;x++;&lt;/font&gt;" style="whiteSpace=wrap;html=1;fillColor=#ffe6cc;strokeColor=#d79b00;" vertex="1" parent="1">
          <mxGeometry x="70" y="1940" width="140" height="80" as="geometry" />
        </mxCell>
        <mxCell id="s3wLV9zYP3ZQD25hzQMA-66" value="&lt;font face=&quot;Verdana&quot;&gt;_putchar(format[x];&lt;br&gt;&lt;/font&gt;" style="whiteSpace=wrap;html=1;fillColor=#f8cecc;strokeColor=#b85450;" vertex="1" parent="1">
          <mxGeometry x="630" y="650" width="125" height="80" as="geometry" />
        </mxCell>
      </root>
    </mxGraphModel>
  </diagram>
</mxfile>
